# xmcd CD database file
#
# Track frame offsets:
#	150
#	18337
#	34725
#	52850
#	69240
#	103082
#
# Disc length: 4440 seconds
#
# Revision: 0
# Processed by: cddbd v1.5PL3 Copyright (c) Steve Scherf et al.
# Submitted via: CDex 1.40Release
#
DISCID=41115606
DTITLE=SUITE CHIC - "Uh Uh,,,,,"feat.AI/baby be mine
DYEAR=2003
DGENRE=Blues
TTITLE0="Uh Uh,,,,,"feat.AI
TTITLE1=baby be mine
TTITLE2="Uh Uh,,,,,"(Instrumental)
TTITLE3=baby be mine(Instrumental)
TTITLE4=GOOD LIFE feat.FIRSTKLAS(DJ KAORI Remix)
TTITLE5=DATE
EXTD=YEAR: 2003 ID3G: 0
EXTT0=
EXTT1=
EXTT2=
EXTT3=
EXTT4=
EXTT5=
PLAYORDER=
